<!-- Copyright © 2015 MODULUS Sp. z o. o. / FUTURAMO™ --><svg xmlns="http://www.w3.org/2000/svg" x="0px" y="0px" width="64px" height="64px" viewBox="0 0 32 32"><path  fill="#666666" d="M25,2c2.757,0,5,2.243,5,5v18c0,2.757-2.243,5-5,5H7c-2.757,0-5-2.243-5-5V7c0-2.757,2.243-5,5-5H25 M25,0H7 C3.134,0,0,3.134,0,7v18c0,3.866,3.134,7,7,7h18c3.866,0,7-3.134,7-7V7C32,3.134,28.866,0,25,0L25,0z M21.16,12 c-2.324,0-4.003,0.94-5.152,2.281V12h-1.971l-0.029,14h2l-0.07-8.063c0-2.156,1.563-4.313,5.063-3.938 c2.059,0.221,2.975,2.018,2.955,3.637L24,26h2v-8.963C26,14.188,23.625,12,21.16,12z M8,26V12H6v14H8z M15.408,13.566v-0.049 c-0.009,0.017-0.022,0.034-0.034,0.049H15.408z M8.5,7c0-0.826-0.674-1.5-1.5-1.5S5.5,6.174,5.5,7S6.174,8.5,7,8.5S8.5,7.826,8.5,7z "></path></svg>