<svg xmlns="http://www.w3.org/2000/svg" viewBox="0 0 223.76 171.7"><defs><style>.cls-1{fill:#fff;}</style></defs><title>MenatPinkLogoWhite</title><g id="Layer_2" data-name="Layer 2"><g id="Layer_1-2" data-name="Layer 1"><polygon class="cls-1" points="112.32 78.45 158.58 0 65.05 0 112.32 78.45"/><polygon class="cls-1" points="223.57 0 167.69 85.85 111.82 171.69 167.79 171.69 223.76 171.69 223.67 85.85 223.57 0"/><path class="cls-1" d="M62.53,75.5q-4.7-5.08-16.74-5.23l18.49,28.4A19.1,19.1,0,0,0,62.53,75.5Z"/><path class="cls-1" d="M76.06,116.77q-10.17,7.67-24.76,7.67H21.49V171.7h90.32Z"/><path class="cls-1" d="M45.79,70.26H21.49V106H46.93q10,0,15.21-4.9a16.23,16.23,0,0,0,2.14-2.44Z"/><polygon class="cls-1" points="0.06 0.01 0 52.42 34.17 52.42 0.06 0.01"/><path class="cls-1" d="M62.53,75.5a19.1,19.1,0,0,1,1.74,23.17l11.79,18.11A37.78,37.78,0,0,0,79,114.3q10.92-10.14,10.93-26.48A34.74,34.74,0,0,0,79.84,63q-10.1-10.53-31-10.53H34.17L45.79,70.26Q57.82,70.42,62.53,75.5Z"/></g></g></svg>